<?xml version="1.0" encoding="UTF-8" standalone="no"?>
<svg width="214px" height="68px" viewBox="0 0 214 68" version="1.1" xmlns="http://www.w3.org/2000/svg" xmlns:xlink="http://www.w3.org/1999/xlink" xmlns:sketch="http://www.bohemiancoding.com/sketch/ns">
    <!-- Generator: Sketch 3.0.4 (8053) - http://www.bohemiancoding.com/sketch -->
    <title>Imported Layers</title>
    <desc>Created with Sketch.</desc>
    <defs>
        <path id="path-1" d="M108.420007,67.6954468 C107.522603,67.9657589 106.565741,67.9657589 105.668337,67.6954468 L3.49477165,46.5570922 C1.47609449,45.9489504 0.0941214848,44.0869078 0.0941214848,41.9752908 L0.0941214848,4.86730496 C0.0941214848,2.22470922 2.23267717,0.0824680851 4.87072666,0.0824680851 L209.217858,0.0824680851 C211.855667,0.0824680851 213.994223,2.22470922 213.994223,4.86730496 L213.994223,41.9752908 C213.994223,44.0869078 212.61225,45.9489504 210.593573,46.5570922 L108.420007,67.6954468 Z"></path>
    </defs>
    <g id="Page-1" stroke="none" stroke-width="1" fill="none" fill-rule="evenodd" sketch:type="MSPage">
        <g id="Portrait" sketch:type="MSArtboardGroup" transform="translate(-213.000000, -135.000000)">
            <g id="Imported-Layers" sketch:type="MSLayerGroup" transform="translate(213.000000, 135.000000)">
                <g id="Fill-1">
                    <use fill="#000000" fill-rule="evenodd" sketch:type="MSShapeGroup" xlink:href="#path-1"></use>
                    <use fill="none" xlink:href="#path-1"></use>
                </g>
                <path d="M17.3775703,4.66402837 C24.2621597,4.66402837 26.4767829,8.08814184 26.4767829,12.3321135 L26.4767829,16.0453475 L17.1849944,16.0453475 L17.1849944,12.8626099 C17.1849944,12.0909787 16.9442745,11.6569362 16.2223555,11.6569362 C15.548099,11.6569362 15.2594758,12.0909787 15.2594758,12.8626099 L15.2594758,13.9233617 C15.2594758,15.0808085 15.548099,15.708 16.7035546,16.527617 L21.2772328,19.7590638 C25.3213273,22.6042128 26.9100787,25.1120142 26.9100787,29.8380142 L26.9100787,31.7188652 C26.9100787,37.4578723 23.9251519,41.6053901 16.8961305,41.6053901 L14.6333633,41.6053901 C8.42303037,41.6053901 5.19738358,38.76 5.19738358,33.1656738 L5.19738358,28.198539 L14.6333633,28.198539 L14.6333633,32.3942837 C14.6333633,33.3105957 14.8259393,33.889078 15.644387,33.889078 C16.4146907,33.889078 16.6554106,33.3105957 16.6554106,32.2978298 L16.6554106,30.995461 C16.6554106,29.4524397 16.5109786,28.7772624 14.9703712,27.6198156 L10.3969336,24.3886099 C6.97871091,21.9772624 5.48624747,18.9389645 5.48624747,14.9845957 L5.48624747,13.1519716 C5.48624747,8.2328227 8.37488639,4.66402837 15.1150439,4.66402837 L17.3775703,4.66402837" id="Fill-2" fill="#FFFFFF" sketch:type="MSShapeGroup"></path>
                <path d="M28.7879348,5.19452482 L38.7053543,5.19452482 L38.7053543,31.2365957 C38.7053543,32.2493617 39.0905062,32.6834043 39.7645219,32.6834043 C40.4866817,32.6834043 40.7755456,32.2011348 40.7755456,31.2365957 L40.7755456,5.19452482 L50.6929651,5.19452482 L50.6929651,32.3460567 C50.6929651,37.2649645 47.3228864,41.701844 40.4866817,41.701844 L38.9460742,41.701844 C31.5321417,41.701844 28.7879348,37.4096454 28.7879348,32.3460567 L28.7879348,5.19452482" id="Fill-3" fill="#FFFFFF" sketch:type="MSShapeGroup"></path>
                <path d="M62.4396153,27.8127234 L62.4396153,41.0748936 L52.8592036,41.0748936 L52.8592036,5.19452482 L66.9170056,5.19452482 C70.8648121,5.19452482 73.8013543,7.31651064 73.8013543,12.6214752 L73.8013543,20.2413333 C73.8013543,25.304922 70.7203802,27.8127234 67.0132936,27.8127234 L62.4396153,27.8127234 L62.4396153,27.8127234 Z M62.4396153,20.385773 L63.113631,20.385773 C63.9802227,20.385773 64.2209426,19.9517305 64.2209426,18.9389645 L64.2209426,13.682227 C64.2209426,12.814383 64.0765107,12.2838865 63.113631,12.2838865 L62.4396153,12.2838865 L62.4396153,20.385773 L62.4396153,20.385773 Z" id="Fill-4" fill="#FFFFFF" sketch:type="MSShapeGroup"></path>
                <path d="M92.2402587,5.19452482 L92.2402587,13.8271489 L85.1630934,13.8271489 L85.1630934,18.1193475 L90.9882745,18.1193475 L90.9882745,26.9446383 L85.1630934,26.9446383 L85.1630934,32.3460567 L92.4809786,32.3460567 L92.4809786,41.0748936 L75.7752576,41.0748936 L75.7752576,5.19452482 L92.2402587,5.19452482" id="Fill-5" fill="#FFFFFF" sketch:type="MSShapeGroup"></path>
                <path d="M104.083438,41.0748936 L94.4548819,41.0748936 L94.4548819,5.19452482 L109.427179,5.19452482 C112.604922,5.19452482 115.445177,7.17182979 115.445177,11.8980709 L115.445177,15.4668652 C115.445177,19.2767943 113.615946,20.8680426 112.026954,21.6396738 C113.663849,22.3148511 115.541465,24.0510213 115.541465,26.7517305 L115.541465,38.2779716 C115.541465,39.3869504 115.734281,40.3032624 116.022904,40.8337589 L116.022904,41.0748936 L106.538781,41.0748936 C106.153629,40.5926241 105.864765,39.6763121 105.864765,38.76 L105.864765,28.3912057 C105.864765,27.6198156 105.720333,27.0893191 104.853741,27.0893191 L104.083438,27.0893191 L104.083438,41.0748936 L104.083438,41.0748936 Z M104.083438,19.3730071 L104.853741,19.3730071 C105.575901,19.3730071 105.864765,18.9389645 105.864765,18.1193475 L105.864765,13.3448794 C105.864765,12.4285674 105.720333,12.0427518 104.901885,12.0427518 L104.083438,12.0427518 L104.083438,19.3730071 L104.083438,19.3730071 Z" id="Fill-6" fill="#FFFFFF" sketch:type="MSShapeGroup"></path>
                <path d="M129.455075,25.5460567 L138.891055,25.5460567 L138.891055,32.2493617 C138.891055,37.0238298 136.146607,41.6053901 129.310403,41.6053901 L127.721651,41.6053901 C120.548439,41.6053901 117.563512,37.6990071 117.563512,31.0439291 L117.563512,14.9845957 C117.611656,9.0044539 120.404007,4.66402837 127.673507,4.66402837 L129.262259,4.66402837 C135.857984,4.66402837 138.891055,8.18483688 138.891055,13.5860142 L138.891055,19.3250213 L129.455075,19.3250213 L129.455075,13.9718298 C129.455075,13.0555177 129.310403,12.5250213 128.492196,12.5250213 C127.721651,12.5250213 127.529316,12.9588227 127.529316,13.9718298 L127.529316,31.9120142 C127.529316,32.924539 127.721651,33.5035035 128.492196,33.5035035 C129.310403,33.5035035 129.455075,32.8765532 129.455075,31.9120142 L129.455075,25.5460567" id="Fill-7" fill="#FFFFFF" sketch:type="MSShapeGroup"></path>
                <path d="M140.961006,5.19452482 L150.878666,5.19452482 L150.878666,31.2365957 C150.878666,32.2493617 151.263577,32.6834043 151.937593,32.6834043 C152.659753,32.6834043 152.948616,32.2011348 152.948616,31.2365957 L152.948616,5.19452482 L162.866277,5.19452482 L162.866277,32.3460567 C162.866277,37.2649645 159.496198,41.701844 152.659753,41.701844 L151.119386,41.701844 C143.705213,41.701844 140.961006,37.4096454 140.961006,32.3460567 L140.961006,5.19452482" id="Fill-8" fill="#FFFFFF" sketch:type="MSShapeGroup"></path>
                <path d="M174.612686,27.8127234 L174.612686,41.0748936 L165.032515,41.0748936 L165.032515,5.19452482 L179.090076,5.19452482 C183.037883,5.19452482 185.974666,7.31651064 185.974666,12.6214752 L185.974666,20.2413333 C185.974666,25.304922 182.893451,27.8127234 179.186364,27.8127234 L174.612686,27.8127234 L174.612686,27.8127234 Z M174.612686,20.385773 L175.286702,20.385773 C176.153534,20.385773 176.394254,19.9517305 176.394254,18.9389645 L176.394254,13.682227 C176.394254,12.814383 176.249582,12.2838865 175.286702,12.2838865 L174.612686,12.2838865 L174.612686,20.385773 L174.612686,20.385773 Z" id="Fill-9" fill="#FFFFFF" sketch:type="MSShapeGroup"></path>
                <path d="M199.647316,4.66402837 C206.531906,4.66402837 208.746529,8.08814184 208.746529,12.3321135 L208.746529,16.0453475 L199.454981,16.0453475 L199.454981,12.8626099 C199.454981,12.0909787 199.214261,11.6569362 198.492101,11.6569362 C197.818085,11.6569362 197.529222,12.0909787 197.529222,12.8626099 L197.529222,13.9233617 C197.529222,15.0808085 197.818085,15.708 198.973541,16.527617 L203.547219,19.7590638 C207.591073,22.6042128 209.179825,25.1120142 209.179825,29.8380142 L209.179825,31.7188652 C209.179825,37.4578723 206.195138,41.6053901 199.165876,41.6053901 L196.90335,41.6053901 C190.692776,41.6053901 187.46737,38.76 187.46737,33.1656738 L187.46737,28.198539 L196.90335,28.198539 L196.90335,32.3942837 C196.90335,33.3105957 197.095926,33.889078 197.914373,33.889078 C198.684436,33.889078 198.925156,33.3105957 198.925156,32.2978298 L198.925156,30.995461 C198.925156,29.4524397 198.780965,28.7772624 197.240358,27.6198156 L192.666679,24.3886099 C189.248457,21.9772624 187.756234,18.9389645 187.756234,14.9845957 L187.756234,13.1519716 C187.756234,8.2328227 190.644632,4.66402837 197.38479,4.66402837 L199.647316,4.66402837" id="Fill-10" fill="#FFFFFF" sketch:type="MSShapeGroup"></path>
                <path id="Fill-11" fill="#FFFFFF" sketch:type="MSShapeGroup"></path>
                <path id="Stroke-12" stroke="#1A1918" sketch:type="MSShapeGroup"></path>
            </g>
        </g>
    </g>
</svg>